<?xml version="1.0" standalone="no"?>
<!DOCTYPE svg PUBLIC "-//W3C//DTD SVG 20010904//EN"
 "http://www.w3.org/TR/2001/REC-SVG-20010904/DTD/svg10.dtd">
<svg version="1.0" xmlns="http://www.w3.org/2000/svg"
 width="16.000000pt" height="16.000000pt" viewBox="0 0 16.000000 16.000000"
 preserveAspectRatio="xMidYMid meet">
<metadata>
Created by potrace 1.11, written by Peter Selinger 2001-2013
</metadata>
<g transform="translate(0.000000,16.000000) scale(0.016495,-0.016495)"
fill="#000000" stroke="none">
<path d="M401 919 c-130 -25 -253 -122 -312 -246 -29 -59 -34 -81 -37 -165 -4
-79 -1 -107 17 -161 68 -204 273 -330 483 -297 93 14 166 50 237 116 182 168
189 442 16 623 -108 113 -253 160 -404 130z m152 -19 c137 -22 258 -115 318
-243 31 -67 34 -79 34 -172 0 -92 -3 -106 -32 -168 -18 -37 -55 -92 -84 -122
-199 -210 -551 -152 -681 112 -31 64 -33 73 -33 178 0 105 2 114 34 180 70
141 207 232 371 244 8 0 41 -3 73 -9z"/>
<path d="M460 871 c0 -28 -17 -35 -25 -11 -10 31 -35 25 -35 -9 0 -34 9 -61
20 -61 4 0 6 12 4 28 l-4 27 12 -28 c15 -34 31 -30 39 9 l7 29 1 -27 c0 -16 6
-28 11 -28 12 0 13 15 4 59 -7 34 -34 43 -34 12z"/>
<path d="M525 866 c-3 -14 -7 -37 -10 -51 -4 -20 -1 -25 14 -25 11 0 26 -3 35
-6 9 -3 16 -1 16 4 0 6 -9 12 -20 14 -26 4 -26 23 0 23 30 1 34 12 5 19 -36 9
-32 29 5 21 19 -4 30 -3 30 4 0 6 -9 11 -19 11 -11 0 -26 3 -35 6 -11 4 -17
-2 -21 -20z"/>
<path d="M306 844 c-31 -30 -9 -84 34 -84 21 0 50 25 50 43 0 22 -31 57 -50
57 -10 0 -26 -7 -34 -16z m54 -19 c16 -20 6 -45 -19 -45 -20 0 -37 32 -26 50
9 15 31 12 45 -5z"/>
<path d="M627 853 c-13 -12 -7 -44 8 -49 16 -7 21 -34 6 -34 -5 0 -16 10 -24
23 l-16 22 0 -23 c-1 -15 7 -26 22 -31 44 -17 63 14 30 51 -9 10 -13 21 -9 26
4 4 13 -1 20 -11 14 -19 26 -22 26 -8 0 25 -47 51 -63 34z"/>
<path d="M245 789 c8 -31 -9 -46 -31 -28 -30 25 -26 -3 6 -36 33 -34 66 -39
36 -6 -12 13 -13 20 -4 29 9 9 16 8 30 -5 36 -32 31 -1 -6 35 -36 36 -37 36
-31 11z"/>
<path d="M365 746 c-98 -45 -165 -151 -165 -261 0 -80 26 -143 84 -201 59 -58
121 -84 204 -84 74 0 121 16 178 59 166 125 139 392 -48 485 -71 36 -180 36
-253 2z m222 -11 c59 -25 101 -62 133 -118 39 -69 39 -96 0 -103 -43 -9 -38
-28 5 -21 43 7 47 -9 5 -18 -36 -8 -41 -29 -5 -23 14 3 25 1 25 -3 0 -5 -11
-11 -25 -15 -14 -3 -25 -11 -25 -16 0 -6 11 -7 25 -4 31 8 31 5 -2 -56 -17
-32 -31 -47 -40 -43 -8 2 -43 -2 -78 -11 -36 -9 -71 -14 -78 -11 -14 5 -43
160 -33 175 6 10 145 37 152 30 2 -3 8 -29 14 -58 11 -57 16 -67 27 -56 7 7
-11 134 -21 143 -3 3 -40 -1 -82 -9 l-77 -16 30 24 c62 48 70 140 17 195 -31
32 -21 36 33 14z m-77 -10 c37 -19 50 -43 50 -95 0 -73 -76 -127 -141 -100
-44 19 -69 56 -69 104 1 85 82 131 160 91z m-182 -51 c-25 -67 15 -144 86
-168 l40 -14 -60 -12 c-32 -6 -67 -14 -76 -16 -13 -4 -20 9 -34 73 -9 43 -18
81 -21 85 -4 8 67 91 73 85 2 -2 -1 -17 -8 -33z m-45 -231 c5 -7 32 -5 92 7
l85 17 5 -23 c3 -13 7 -35 10 -48 4 -22 0 -24 -56 -35 l-61 -12 7 -50 c9 -63
-2 -63 -64 -1 -61 61 -86 129 -78 213 8 89 19 94 37 14 9 -39 19 -76 23 -82z
m207 -146 c0 -38 17 -42 101 -22 39 8 73 14 76 12 6 -7 -58 -43 -101 -57 -34
-11 -149 -11 -160 1 -2 2 -7 25 -11 51 l-7 46 43 9 c49 10 59 4 59 -40z"/>
<path d="M728 759 c-21 -12 -24 -59 -6 -77 14 -14 44 -16 52 -3 8 12 -4 41
-16 41 -6 0 -8 -7 -4 -15 3 -9 0 -15 -8 -15 -19 0 -26 21 -14 43 12 24 49 22
55 -3 6 -22 23 -27 23 -7 0 18 -32 47 -51 47 -8 0 -22 -5 -31 -11z"/>
<path d="M170 715 c7 -9 15 -13 17 -11 7 7 -7 26 -19 26 -6 0 -6 -6 2 -15z"/>
<path d="M143 681 c-12 -7 -36 -51 -31 -56 9 -7 68 -35 76 -35 5 0 14 12 21
26 10 22 9 30 -4 44 -19 21 -48 31 -62 21z m54 -38 c9 -24 -11 -35 -40 -22
-30 13 -32 20 -16 36 14 14 49 5 56 -14z"/>
<path d="M792 666 c-24 -12 -40 -25 -36 -29 4 -3 15 -2 25 4 22 11 25 -1 8
-33 -12 -23 -2 -40 11 -18 5 8 20 15 32 15 27 0 37 40 16 67 -12 15 -16 15
-56 -6z m51 -21 c9 -23 -11 -28 -23 -5 -8 16 -8 20 4 20 7 0 16 -7 19 -15z"/>
<path d="M806 564 c-23 -23 -20 -51 9 -70 23 -15 27 -15 50 0 27 18 33 54 13
74 -17 17 -54 15 -72 -4z m63 -18 c9 -11 8 -18 -4 -30 -19 -18 -18 -18 -39
-10 -19 7 -21 40 -3 47 22 9 34 7 46 -7z"/>
<path d="M86 522 c-4 -18 -6 -35 -4 -36 1 -2 24 -6 51 -8 l47 -6 -1 42 c-1 37
-2 38 -8 12 -8 -38 -25 -40 -29 -3 -4 30 -22 27 -22 -4 0 -29 -18 -23 -22 9
-4 27 -4 27 -12 -6z"/>
<path d="M802 458 c-7 -7 -12 -22 -12 -35 0 -17 7 -24 28 -29 15 -3 35 -8 45
-11 9 -2 17 0 17 6 0 5 -16 13 -35 17 -26 5 -35 11 -35 26 0 18 5 19 40 13 47
-8 55 9 9 19 -42 8 -43 8 -57 -6z"/>
<path d="M88 420 c4 -31 22 -52 22 -26 0 9 15 17 40 21 56 9 51 28 -5 19 -30
-4 -45 -3 -45 5 0 6 -4 11 -8 11 -5 0 -7 -14 -4 -30z"/>
<path d="M147 372 c-30 -31 -37 -68 -11 -58 9 3 31 6 50 6 19 0 34 5 34 10 0
6 -6 10 -14 10 -17 0 -28 24 -20 45 10 24 -10 17 -39 -13z m23 -27 c0 -8 -7
-15 -16 -15 -14 0 -14 3 -4 15 7 8 14 15 16 15 2 0 4 -7 4 -15z"/>
<path d="M780 370 c0 -5 5 -10 10 -10 6 0 9 -15 8 -32 -3 -27 1 -34 19 -36 13
-2 27 5 37 20 22 31 21 34 -24 52 -47 19 -50 19 -50 6z m60 -45 c0 -8 -7 -15
-15 -15 -16 0 -20 12 -8 23 11 12 23 8 23 -8z"/>
<path d="M203 284 c-19 -15 -34 -20 -38 -14 -3 5 -11 10 -16 10 -6 0 -1 -13
11 -30 22 -31 44 -41 34 -16 -3 8 8 24 27 38 17 14 27 28 22 31 -5 3 -23 -5
-40 -19z"/>
<path d="M720 279 c0 -8 5 -20 12 -27 9 -9 5 -12 -20 -12 -35 0 -132 -44 -132
-59 0 -16 -42 -24 -51 -10 -4 7 -11 10 -15 6 -8 -8 42 -87 56 -87 9 0 15 18
22 65 4 22 53 54 65 42 4 -5 -3 -17 -17 -27 -18 -14 -20 -20 -10 -20 9 0 21 5
27 11 7 7 13 7 17 0 4 -5 -3 -15 -14 -21 -11 -6 -20 -15 -20 -21 0 -5 14 -3
30 6 33 17 37 32 15 61 -21 27 -19 43 5 37 11 -3 20 -11 20 -18 0 -7 6 -18 14
-24 11 -9 20 -6 42 13 l29 25 -37 38 c-24 24 -38 32 -38 22z m45 -59 c3 -6 -1
-13 -10 -16 -19 -8 -30 0 -20 15 8 14 22 14 30 1z m-195 -86 c0 -8 -4 -12 -10
-9 -5 3 -10 10 -10 16 0 5 5 9 10 9 6 0 10 -7 10 -16z"/>
<path d="M250 245 c-10 -12 -9 -20 4 -40 14 -22 15 -25 1 -25 -8 0 -15 7 -15
15 0 8 -4 15 -10 15 -14 0 -13 -23 2 -38 31 -31 69 0 43 35 -18 23 -19 33 -2
33 8 0 19 -10 25 -22 10 -22 11 -22 11 -2 2 39 -36 57 -59 29z"/>
<path d="M330 210 c0 -5 9 -12 20 -15 11 -3 20 -13 20 -21 0 -17 -5 -17 -30
-4 -11 6 -21 6 -25 1 -3 -5 4 -12 15 -16 29 -9 25 -28 -5 -21 -35 9 -31 -7 5
-21 30 -11 31 -11 47 30 10 23 17 44 16 46 -3 9 -63 29 -63 21z"/>
<path d="M435 170 c3 -5 15 -10 26 -10 16 0 19 -7 19 -41 0 -24 4 -38 10 -34
6 3 10 26 10 51 0 44 0 44 -36 44 -21 0 -33 -4 -29 -10z"/>
</g>
</svg>
